<?xml version="1.0" encoding="utf-8"?>
<svg version="1.1" id="icon-nslogo" xmlns="http://www.w3.org/2000/svg" xmlns:xlink="http://www.w3.org/1999/xlink" x="0px"
	 y="0px" viewBox="0 0 400 400" enable-background="new 0 0 400 400" xml:space="preserve">
<path fill="#0096DD" d="M385.5,200c0,88.4-72.6,161-161,161c-43.1,0-94-19.8-122-56c24.4,18.6,49.3,38.5,100,40
	c75.2,2.2,145-64.9,145-145s-64.9-142.7-145-143c-38.5-0.2-75,16.3-99,39c24.2-28,66.5-56.5,122-56
	C313.9,40.8,385.5,111.6,385.5,200z M222.5,370c39.3,0,75.4-13.3,104.2-35.7c-33.2,31.4-77.9,50.7-127.2,50.7
	c-102.2,0-185-82.8-185-185s82.8-185,185-185c49.3,0,94.1,19.3,127.2,50.7C297.9,43.3,261.8,30,222.5,30C147.4,30,85,78.5,62.5,146
	c0,0,10.7-6.4,13-7c43.8-11.3,76,19.2,100,51c8-14.7,22.5-31.3,36.9-41.9c24.4-17.8,60.2-15.5,83.5,3.5c23.3,19,32.1,53.9,20.4,81.4
	c-13,30.6-49.6,42.8-81.3,24.4c-18.5-10.8-35.2-26.1-49.6-44.5c-32,56.3-96,69.3-121,26c54.7,33.8,109.6-40.7,107-44
	c-20.7-26.2-60.7-47-86-34c-20.8,10.7-31.8,26.2-32.7,49.8c0.8,12.7,3,25.1,6.4,36.9c2.3,7,5,13.7,8,20.2l-0.7-0.2
	C92.7,327.9,152.7,370,222.5,370z M190.6,206.1c20.1,21.2,40.2,40.5,71.9,36.9c26.9-3,48.5-29.1,44-56c-3.9-23.2-28.2-36.7-56-30
	C223.8,163.4,206.2,182.2,190.6,206.1z"/>
</svg>
